<svg xmlns:xlink="http://www.w3.org/1999/xlink"  class="w-6 h-6 mr-2.5 sm:hidden" viewBox="0 0 24 24" fill="none" xmlns="http://www.w3.org/2000/svg"><rect width="24" height="24" rx="12" fill="#F3BA2F"></rect><path d="M9.017 10.774 12 7.791l2.985 2.985L16.72 9.04 12 4.32 7.281 9.039l1.736 1.735ZM4.32 12l1.736-1.736L7.79 12l-1.735 1.735L4.32 12Zm4.697 1.226L12 16.209l2.984-2.985 1.737 1.735v.001L12 19.68l-4.719-4.719-.002-.002 1.738-1.733ZM16.209 12l1.735-1.736 1.736 1.736-1.736 1.735-1.735-1.735Z" fill="#fff"></path><path d="M13.76 12h.001l-1.76-1.762-1.303 1.301-.15.15-.307.308-.003.003.003.002 1.76 1.76 1.76-1.761.001-.001h-.001" fill="#fff"></path></svg>